<!-- Created with VectoSolve.com — Free AI vectorizer -->
<svg xmlns="http://www.w3.org/2000/svg" width="300" height="300" preserveAspectRatio="none" style="display: block;" version="1.1" viewBox="0 0 1200 1200">
<metadata><dc:creator xmlns:dc="http://purl.org/dc/elements/1.1/">VectoSolve.com</dc:creator></metadata><path fill="rgb(0,129,139)" d="M596.662 144.389c34.998-3.172 61.633 12.496 92.264 26.447l92.646 42.659 148.298 67.771c24.231 11.112 55.887 23.912 77.53 38.258 13.33 8.839 24.72 33.444 25.74 49.353 1.78 27.628.95 59.551.93 87.73l-.04 172.002-.01 232.228.09 70.326c.13 33.766 7.63 85.057-38.179 90.057-15.486 1.69-29.669 1.15-45.212 1.13l-74.309-.02-285.711-.03-86.45.01c-14.861.01-38.143-.55-52.35 1.07l-.046-165.707c19.573 1.577 50.149.697 70.701.7l127.415-.019 121.152.044c21.565.013 43.424.502 64.903-.442 18.695-.822 32.803-15.317 34.427-33.722 1.872-21.221 1.396-42.176 1.37-63.418l-.058-96.799.038-113.437c.027-24.681.763-55.347-1.605-79.567-12.076-45.993-37.565-49.775-76.888-67.799l-72.36-33.097-54.019-24.848c-9.531-4.383-22.948-10.989-32.496-14.364a96.2 96.2 0 0 0-33.498-5.572c-25.078.388-42.907 10.519-65.353 20.392l-64.644 28.356-71.674 31.049c-12.541 5.403-30.558 12.592-42.119 18.702a78.6 78.6 0 0 0-19.741 14.962c-9.545 10.062-13.98 19.273-14.725 32.864-1.192 21.728-.655 45.343-.657 67.163l-.011 131.777.001 230.009c.004 39.353-.966 83.426.274 122.493-42.124-2.7-86.002 1.52-128.054-1.62-21.241-1.59-34.093-22.682-35.179-42.768-1.814-33.543-.949-67.966-.947-101.836l-.018-196.325-.042-204.259.009-63.039c.024-39.48-2.981-79.379 39.039-100.877 17.503-8.954 35.936-16.19 53.963-24.053l106.559-46.34 136.739-59.616c29.428-12.846 71.164-34.849 102.307-37.978"/><path fill="rgb(141,128,122)" d="M595.645 451.22c1.691-.129 3.383-.179 5.078-.229 6.631-.197 13.421-.426 19.841 1.531 14.632 4.461 114.164 49.015 123.352 57.864 10.183 9.808 11.358 21.62 11.657 35.051.863 38.733-.121 77.697-.053 116.46.032 18.651 2.007 48.461-.496 65.954-.65 4.537-2.584 8.555-5.811 11.837-3.556 3.615-7.359 5.308-12.282 6.235-14.533 2.736-30.894 1.266-45.713 1.252l-78.718-.093-88.692.097c-16.25.029-32.393.216-48.658-.311-20.876-.677-25.795-12.942-25.444-31.885.12-6.488-.041-13.959-.045-20.49l.023-61.993-.042-64.309c.007-25.725-5.239-51.071 22.278-64.213 31.426-15.009 63.719-28.079 95.559-42.207 8.45-3.75 19.332-8.5 28.166-10.551"/></svg>